<svg width="32" height="32" viewBox="0 0 32 32" fill="none" xmlns="http://www.w3.org/2000/svg">
<path d="M0 1C0 0.734784 0.105357 0.48043 0.292893 0.292893C0.48043 0.105357 0.734784 0 1 0H4C4.22306 6.1623e-05 4.4397 0.0747014 4.61546 0.212049C4.79122 0.349398 4.91602 0.541568 4.97 0.758L5.78 4H29C29.1519 4.00004 29.3018 4.03469 29.4383 4.10131C29.5748 4.16792 29.6944 4.26477 29.7878 4.38448C29.8813 4.50419 29.9463 4.64363 29.9779 4.79222C30.0095 4.9408 30.0068 5.09462 29.97 5.242L26.97 17.242C26.916 17.4584 26.7912 17.6506 26.6155 17.788C26.4397 17.9253 26.2231 17.9999 26 18H8C7.77694 17.9999 7.5603 17.9253 7.38454 17.788C7.20878 17.6506 7.08398 17.4584 7.03 17.242L3.22 2H1C0.734784 2 0.48043 1.89464 0.292893 1.70711C0.105357 1.51957 0 1.26522 0 1ZM6.28 6L8.78 16H25.22L27.72 6H6.28ZM10 22C9.46957 22 8.96086 22.2107 8.58579 22.5858C8.21072 22.9609 8 23.4696 8 24C8 24.5304 8.21072 25.0391 8.58579 25.4142C8.96086 25.7893 9.46957 26 10 26C10.5304 26 11.0391 25.7893 11.4142 25.4142C11.7893 25.0391 12 24.5304 12 24C12 23.4696 11.7893 22.9609 11.4142 22.5858C11.0391 22.2107 10.5304 22 10 22ZM6 24C6 22.9391 6.42143 21.9217 7.17157 21.1716C7.92172 20.4214 8.93913 20 10 20C11.0609 20 12.0783 20.4214 12.8284 21.1716C13.5786 21.9217 14 22.9391 14 24C14 25.0609 13.5786 26.0783 12.8284 26.8284C12.0783 27.5786 11.0609 28 10 28C8.93913 28 7.92172 27.5786 7.17157 26.8284C6.42143 26.0783 6 25.0609 6 24ZM24 22C23.4696 22 22.9609 22.2107 22.5858 22.5858C22.2107 22.9609 22 23.4696 22 24C22 24.5304 22.2107 25.0391 22.5858 25.4142C22.9609 25.7893 23.4696 26 24 26C24.5304 26 25.0391 25.7893 25.4142 25.4142C25.7893 25.0391 26 24.5304 26 24C26 23.4696 25.7893 22.9609 25.4142 22.5858C25.0391 22.2107 24.5304 22 24 22ZM20 24C20 22.9391 20.4214 21.9217 21.1716 21.1716C21.9217 20.4214 22.9391 20 24 20C25.0609 20 26.0783 20.4214 26.8284 21.1716C27.5786 21.9217 28 22.9391 28 24C28 25.0609 27.5786 26.0783 26.8284 26.8284C26.0783 27.5786 25.0609 28 24 28C22.9391 28 21.9217 27.5786 21.1716 26.8284C20.4214 26.0783 20 25.0609 20 24Z" fill="#DCCFC4"/>
</svg>
