<svg width="37" height="33" viewBox="0 0 37 33" fill="none" xmlns="http://www.w3.org/2000/svg">
<path d="M28.0859 0.298304C28.1933 0.203746 28.3209 0.128725 28.4614 0.0775365C28.6019 0.0263486 28.7525 0 28.9045 0C29.0566 0 29.2072 0.0263486 29.3477 0.0775365C29.4881 0.128725 29.6157 0.203746 29.7231 0.298304L36.6603 6.39055C36.768 6.48487 36.8534 6.59692 36.9117 6.72028C36.97 6.84363 37 6.97588 37 7.10944C37 7.24299 36.97 7.37524 36.9117 7.4986C36.8534 7.62195 36.768 7.734 36.6603 7.82832L13.5363 28.1358C13.4254 28.2326 13.2932 28.3086 13.1479 28.3592L1.58586 32.4207C1.37574 32.4945 1.14557 32.5126 0.923863 32.4727C0.702158 32.4328 0.498676 32.3365 0.338643 32.196C0.17861 32.0555 0.069064 31.8768 0.023585 31.6821C-0.021894 31.4874 -0.00130557 31.2852 0.0827979 31.1007L4.7076 20.947C4.76524 20.8193 4.85177 20.7032 4.96196 20.6058L28.0859 0.298304ZM25.9146 5.07869L31.2169 9.73519L34.2069 7.10944L28.9045 2.45293L25.9146 5.07869ZM29.5821 11.1709L24.2797 6.51443L9.24915 19.7143V20.3093H10.4053C10.712 20.3093 11.0061 20.4163 11.2229 20.6067C11.4397 20.7971 11.5615 21.0554 11.5615 21.3247V22.3401H12.7177C13.0244 22.3401 13.3185 22.447 13.5353 22.6374C13.7521 22.8279 13.8739 23.0861 13.8739 23.3554V24.3708H14.5515L29.5821 11.1709ZM7.01075 21.6801L6.76563 21.8953L3.23229 29.6548L12.068 26.5518L12.3131 26.3366C12.0925 26.2642 11.9024 26.1344 11.7681 25.9646C11.6338 25.7947 11.5617 25.5929 11.5615 25.3862V24.3708H10.4053C10.0987 24.3708 9.80462 24.2638 9.58779 24.0734C9.37096 23.883 9.24915 23.6247 9.24915 23.3554V22.3401H8.09295C7.8575 22.3399 7.62771 22.2766 7.43432 22.1587C7.24093 22.0407 7.09315 21.8738 7.01075 21.6801Z" fill="#DCCFC4"/>
</svg>
