<svg width="34" height="32" viewBox="0 0 34 32" fill="none" xmlns="http://www.w3.org/2000/svg">
<path d="M15.6447 1.34957C15.6435 1.22503 15.668 1.10149 15.7166 0.986013C15.7653 0.870533 15.8372 0.765369 15.9282 0.676526C16.0193 0.587684 16.1277 0.516902 16.2473 0.468223C16.3669 0.419543 16.4953 0.393919 16.6252 0.392814C16.7551 0.391709 16.884 0.415145 17.0045 0.461783C17.125 0.50842 17.2347 0.577347 17.3274 0.664627C17.42 0.751907 17.4939 0.855831 17.5447 0.970466C17.5955 1.0851 17.6222 1.2082 17.6233 1.33274L17.7496 15.1198L32.1327 14.9962C32.2626 14.995 32.3915 15.0185 32.512 15.0651C32.6325 15.1118 32.7422 15.1807 32.8349 15.268C32.9275 15.3552 33.0014 15.4592 33.0522 15.5738C33.103 15.6884 33.1297 15.8115 33.1308 15.9361C33.132 16.0606 33.1075 16.1842 33.0589 16.2996C33.0102 16.4151 32.9383 16.5203 32.8473 16.6091C32.7562 16.698 32.6478 16.7687 32.5282 16.8174C32.4086 16.8661 32.2802 16.8917 32.1503 16.8928L17.7671 17.0138L17.8961 30.8009C17.8973 30.9254 17.8728 31.049 17.8242 31.1644C17.7755 31.2799 17.7036 31.3851 17.6125 31.4739C17.5215 31.5628 17.4131 31.6335 17.2935 31.6822C17.1739 31.7309 17.0455 31.7565 16.9155 31.7576C16.7856 31.7587 16.6567 31.7353 16.5363 31.6887C16.4158 31.642 16.3061 31.5731 16.2134 31.4858C16.1207 31.3985 16.0469 31.2946 15.9961 31.18C15.9453 31.0653 15.9186 30.9422 15.9174 30.8177L15.7912 17.0306L1.40804 17.1543C1.27812 17.1554 1.14924 17.132 1.02876 17.0853C0.90829 17.0387 0.798581 16.9698 0.705897 16.8825C0.613213 16.7952 0.53937 16.6913 0.488585 16.5766C0.437803 16.462 0.411071 16.3389 0.409917 16.2144C0.408764 16.0898 0.433213 15.9663 0.481868 15.8508C0.530521 15.7353 0.602428 15.6302 0.693483 15.5413C0.784536 15.4525 0.892954 15.3817 1.01254 15.333C1.13214 15.2843 1.26056 15.2587 1.39048 15.2576L15.7737 15.1366L15.6447 1.34957Z" fill="#DCCFC4"/>
</svg>
