<svg width="10" height="19" viewBox="0 0 10 19" fill="none" xmlns="http://www.w3.org/2000/svg">
<path fill-rule="evenodd" clip-rule="evenodd" d="M0.209794 0.214666C0.276128 0.14662 0.35493 0.0926328 0.441687 0.0557969C0.528444 0.018961 0.62145 0 0.71538 0C0.809309 0 0.902316 0.018961 0.989072 0.0557969C1.07583 0.0926328 1.15463 0.14662 1.22097 0.214666L9.79021 8.98287C9.85671 9.05074 9.90947 9.13137 9.94547 9.22015C9.98147 9.30892 10 9.40408 10 9.50019C10 9.5963 9.98147 9.69147 9.94547 9.78024C9.90947 9.86901 9.85671 9.94964 9.79021 10.0175L1.22097 18.7857C1.08688 18.9229 0.905011 19 0.71538 19C0.525748 19 0.343884 18.9229 0.209794 18.7857C0.0757048 18.6485 0.000373881 18.4624 0.000373881 18.2684C0.000373881 18.0744 0.0757048 17.8883 0.209794 17.7511L8.27488 9.50019L0.209794 1.24931C0.143292 1.18144 0.0905301 1.10081 0.0545301 1.01204C0.0185301 0.923266 0 0.8281 0 0.73199C0 0.63588 0.0185301 0.540714 0.0545301 0.451943C0.0905301 0.363172 0.143292 0.28254 0.209794 0.214666Z" fill="#DCCFC4"/>
</svg>
