<svg width="23" height="18" viewBox="0 0 23 18" fill="none" xmlns="http://www.w3.org/2000/svg">
<path d="M9.95128 17.1796L0.491811 3.98932C-0.624548 2.43738 0.28274 8.84737e-07 1.977 8.84737e-07H20.8959C21.2751 -0.000395706 21.6464 0.132547 21.9652 0.382909C22.284 0.633272 22.5369 0.990441 22.6937 1.41164C22.8504 1.83285 22.9042 2.30023 22.8488 2.75782C22.7934 3.21541 22.631 3.64381 22.3811 3.99172L12.9217 17.1772C12.7365 17.4356 12.5082 17.6427 12.2521 17.7847C11.9959 17.9266 11.7178 18 11.4365 18C11.1551 18 10.877 17.9266 10.6209 17.7847C10.3647 17.6427 10.1364 17.4356 9.95128 17.1772V17.1796Z" fill="#DCCFC4"/>
</svg>
