<svg width="18" height="23" viewBox="0 0 18 23" fill="none" xmlns="http://www.w3.org/2000/svg">
<path d="M17.1796 12.9182L3.98932 22.3773C2.43498 23.4937 8.84738e-07 22.5864 8.84738e-07 20.8922V1.97398C-0.000395706 1.59482 0.132547 1.2236 0.382909 0.904781C0.633272 0.585959 0.99044 0.33305 1.41164 0.17634C1.83285 0.0196299 2.30023 -0.0342382 2.75782 0.0211868C3.21541 0.0766118 3.64381 0.23898 3.99172 0.488848L17.1772 9.94796C17.4356 10.1331 17.6427 10.3614 17.7847 10.6175C17.9266 10.8737 18 11.1518 18 11.4331C18 11.7144 17.9266 11.9925 17.7847 12.2487C17.6427 12.5048 17.4356 12.7331 17.1772 12.9182H17.1796Z" fill="#DCCFC4"/>
</svg>
