<svg width="23" height="33" viewBox="0 0 23 33" fill="none" xmlns="http://www.w3.org/2000/svg">
<path d="M11.5 33C12.3714 33 13.2072 32.5654 13.8234 31.7919C14.4395 31.0183 14.7857 29.9692 14.7857 28.8752H8.21429C8.21429 29.9692 8.56046 31.0183 9.17665 31.7919C9.79284 32.5654 10.6286 33 11.5 33ZM13.1346 2.26837C13.1576 1.9816 13.1324 1.69198 13.0607 1.4182C12.9889 1.14441 12.8723 0.892528 12.7183 0.6788C12.5643 0.465071 12.3763 0.29424 12.1665 0.177323C11.9566 0.0604062 11.7296 0 11.5 0C11.2704 0 11.0434 0.0604062 10.8335 0.177323C10.6237 0.29424 10.4357 0.465071 10.2817 0.6788C10.1277 0.892528 10.0111 1.14441 9.93934 1.4182C9.86763 1.69198 9.84243 1.9816 9.86536 2.26837C8.00818 2.74179 6.33853 4.00678 5.13937 5.84894C3.94022 7.69111 3.28533 9.99711 3.28571 12.3761C3.28571 14.6406 2.46429 24.7505 0 26.8128H23C20.5357 24.7505 19.7143 14.6406 19.7143 12.3761C19.7143 7.38515 16.8886 3.21913 13.1346 2.26837Z" fill="#DCCFC4"/>
</svg>
