<svg width="24" height="25" viewBox="0 0 24 25" fill="none" xmlns="http://www.w3.org/2000/svg">
<path d="M20.4937 3.96443C19.3887 2.86836 18.0725 1.99943 16.6219 1.40832C15.1714 0.817217 13.6156 0.51577 12.0452 0.521566C5.46509 0.521566 0.102461 5.78799 0.0964339 12.2534C0.0964339 14.3241 0.647916 16.3386 1.6891 18.1222L0 24.2042L6.3345 22.5731C8.08611 23.5118 10.0499 24.003 12.0452 24.0014H12.0512C18.6328 24.0014 23.994 18.735 24 12.2637C24.0013 10.7215 23.6921 9.1942 23.0901 7.76985C22.4881 6.34549 21.6067 5.0522 20.4937 3.96443ZM12.0452 22.015C10.266 22.0137 8.51967 21.5434 6.98845 20.6533L6.62682 20.4401L2.86891 21.4082L3.87242 17.8069L3.63737 17.4354C2.6426 15.8817 2.11649 14.0829 2.12004 12.2474C2.12004 6.88035 6.57559 2.50203 12.0512 2.50203C13.3557 2.49973 14.6478 2.7511 15.8529 3.24165C17.058 3.7322 18.1523 4.45223 19.0728 5.36022C19.9963 6.26482 20.7285 7.34001 21.2271 8.52382C21.7256 9.70763 21.9808 10.9767 21.9779 12.2578C21.9719 17.6441 17.5163 22.015 12.0452 22.015ZM17.4922 14.7119C17.1954 14.5654 15.7293 13.8564 15.4535 13.7557C15.1793 13.6595 14.9789 13.6092 14.783 13.9023C14.5826 14.1938 14.01 14.8584 13.8383 15.0494C13.6665 15.2462 13.4887 15.2684 13.1904 15.1234C12.8935 14.9754 11.9307 14.6675 10.7916 13.6654C9.90256 12.8883 9.30738 11.9262 9.12958 11.6346C8.95781 11.3416 9.11301 11.1847 9.26218 11.0381C9.39327 10.9079 9.55901 10.6947 9.70818 10.526C9.85886 10.3573 9.90859 10.2329 10.0065 10.0375C10.1045 9.8392 10.0578 9.67046 9.98392 9.52393C9.90859 9.37739 9.31341 7.93127 9.06178 7.34808C8.82069 6.7723 8.57509 6.85223 8.39126 6.84483C8.21949 6.83447 8.01908 6.83447 7.81868 6.83447C7.66736 6.83825 7.51847 6.87267 7.38131 6.93558C7.24416 6.99849 7.1217 7.08853 7.0216 7.20007C6.74736 7.49314 5.98041 8.20214 5.98041 9.64826C5.98041 11.0944 7.05022 12.4843 7.2009 12.6811C7.34857 12.878 9.30135 15.8368 12.2983 17.1098C13.0065 17.4132 13.564 17.5923 13.9995 17.7285C14.7152 17.9535 15.3616 17.9194 15.8769 17.8469C16.4495 17.761 17.6414 17.1364 17.893 16.4511C18.1401 15.7643 18.1401 15.1782 18.0648 15.0553C17.991 14.931 17.7906 14.8584 17.4922 14.7119Z" fill="white"/>
</svg>
